<?xml version="1.0" encoding="utf-8"?>
<!-- Generator: Adobe Illustrator 16.0.3, SVG Export Plug-In . SVG Version: 6.00 Build 0)  -->
<!DOCTYPE svg PUBLIC "-//W3C//DTD SVG 1.1//EN" "http://www.w3.org/Graphics/SVG/1.1/DTD/svg11.dtd">
<svg version="1.1" id="Layer_1" xmlns="http://www.w3.org/2000/svg" xmlns:xlink="http://www.w3.org/1999/xlink" x="0px" y="0px"
	 width="206.319px" height="279.108px" viewBox="0 0 206.319 279.108" enable-background="new 0 0 206.319 279.108"
	 xml:space="preserve">
<g>
	<g>
		<path fill="#FFFFFF" d="M120.753,133.364c4.206,0.12,6.063,2.412,4.972,6.423c-0.414,1.524-1.407,2.881-2.052,4.352
			c-0.541,1.236-1.294,2.508-1.375,3.801c-0.594,9.536-1.063,19.081-1.529,28.626c-0.221,4.527-0.31,9.061-0.527,13.588
			c-0.27,5.597-0.672,11.188-0.903,16.786c-0.194,4.693-0.104,9.399-0.357,14.089c-0.465,8.622-1.11,17.234-1.636,25.854
			c-0.231,3.782-0.384,7.569-0.52,11.355c-0.207,5.767-0.358,11.534-0.554,17.301c-0.085,2.523-0.108,2.531-2.665,2.533
			c-6.688,0.004-13.376-0.045-20.064,0.035c-1.567,0.019-2.108-0.383-2.157-2.022c-0.211-7.091-0.57-14.177-0.87-21.266
			c-0.171-4.035-0.097-8.098-0.543-12.103c-0.968-8.679-1.004-17.371-1.118-26.084c-0.122-9.388-0.771-18.77-1.188-28.154
			c-0.201-4.528-0.436-9.056-0.586-13.586c-0.208-6.264-0.326-12.53-0.537-18.794c-0.096-2.885-0.019-5.826-0.597-8.621
			c-0.357-1.729-1.695-3.307-2.777-4.82c-2.002-2.799-1.998-5.5,0.216-7.812c1.354-1.414,3.105-1.771,4.967-1.773
			c4.458-0.007,11.053-0.041,15.511-0.002C108.085,133.106,120.753,133.364,120.753,133.364z"/>
		<g>
			<path fill="#E2E9EA" d="M87.093,197.124c-0.149-2.867-0.298-5.734-0.426-8.601l-0.18-3.928c-0.15-3.223-0.3-6.445-0.407-9.67
				c-0.013-0.382-0.021-0.264-0.033-0.646L15.22,11H191.1l-68.983,159.013c-0.121,2.43-0.236,4.558-0.349,6.852
				c-0.111,2.284-0.189,4.444-0.267,6.73c-0.077,2.244-0.153,4.426-0.261,6.669c-0.118,2.451-0.262,4.869-0.405,7.318
				c-0.003,0.045-0.005,0.576-0.008,0.62L206.319,1H0l87.34,201.463C87.26,200.839,87.176,198.725,87.093,197.124z"/>
		</g>
	</g>
	<path fill="#FFFFFF" d="M102.38,90.333c-5.366,0.02-10.732,0.063-16.097-0.018c-4.954-0.075-6.606-1.832-8.14-5.766
		c-2.226-5.714-1.362-11.375,1.333-16.639c1.929-3.769,4.394-7.29,6.877-10.735c1.187-1.645,1.855-3.169,1.637-5.198
		c-0.21-1.951-0.092-1.986,1.905-1.897c1.292,0.058,1.813-0.818,1.995-1.8c1.208-6.542,5.469-11.067,10.037-15.403
		c0.957-0.908,1.911-1.822,2.915-2.677c0.624-0.531,1.126-0.37,1.012,0.512c-0.22,1.691-0.302,3.455-0.868,5.035
		c-1.157,3.228-0.769,5.985,1.863,8.249c2.616,2.25,5.219,4.532,7.986,6.585c4.61,3.421,8.821,7.156,11.238,12.511
		c3.117,6.908,2.364,13.709-0.729,20.389c-3.138,6.778-3.168,6.764-10.58,6.764C114.766,90.243,105.476,90.321,102.38,90.333z"/>
	<path fill="#FFFFFF" d="M105.264,92.229c6.273,0,12.547-0.039,18.818,0.032c1.282,0.015,2.584,0.348,3.832,0.695
		c1.484,0.413,2.009,1.621,1.992,3.054c-0.017,1.447-0.908,2.271-2.23,2.573c-1.194,0.273-2.428,0.369-3.635,0.59
		c-0.711,0.13-1.491,0.205-2.091,0.557c-2.006,1.177-2.112,2.205-0.449,3.828c0.822,0.802,1.786,1.459,2.61,2.26
		c5.312,5.152,6.052,11.733,2.919,18.291c-2.201,4.608-5.564,7.4-10.973,7.266c-8.818-0.22-17.645-0.571-26.456-0.366
		c-3.813,0.089-5.875-1.771-7.996-4.293c-5.059-6.015-5.466-13.448-0.812-19.704c1.031-1.387,2.239-2.647,3.205-4.074
		c0.5-0.74,1.05-1.819,0.863-2.565c-0.282-1.125-1.357-1.72-2.69-1.74c-1.299-0.019-2.667-0.067-3.865-0.495
		c-0.771-0.276-1.661-1.18-1.828-1.948c-0.238-1.091,0.131-2.359,1.451-2.829c0.839-0.298,1.73-0.565,2.611-0.61
		c4.112-0.213,8.227-0.408,12.343-0.488c4.125-0.08,8.253-0.018,12.379-0.018C105.264,92.238,105.264,92.233,105.264,92.229z"/>
</g>
</svg>
