<?xml version="1.0" encoding="UTF-8" standalone="no"?>
<svg width="207px" height="278px" viewBox="0 0 207 278" version="1.1" xmlns="http://www.w3.org/2000/svg" xmlns:xlink="http://www.w3.org/1999/xlink" xmlns:sketch="http://www.bohemiancoding.com/sketch/ns">
    <title>Slice 1</title>
    <description>Created with Sketch (http://www.bohemiancoding.com/sketch)</description>
    <defs></defs>
    <g id="Page 1" stroke="none" stroke-width="1" fill="none" fill-rule="evenodd">
        <g id="Layer_1">
            <g id="Group">
                <g id="Shape">
                    <path d="M120.753,132.364 C124.959,132.484 126.816,134.776 125.725,138.787 C125.311,140.311 124.318,141.668 123.673,143.139 C123.132,144.375 122.379,145.647 122.298,146.94 C121.704,156.476 121.235,166.021 120.769,175.566 C120.548,180.093 120.459,184.627 120.242,189.154 C119.972,194.751 119.57,200.342 119.339,205.94 C119.145,210.633 119.235,215.339 118.982,220.029 C118.517,228.651 117.872,237.263 117.346,245.883 C117.115,249.665 116.962,253.452 116.826,257.238 C116.619,263.005 116.468,268.772 116.272,274.539 C116.187,277.062 116.164,277.07 113.607,277.072 C106.919,277.076 100.231,277.027 93.543,277.107 C91.976,277.126 91.435,276.724 91.386,275.085 C91.175,267.994 90.816,260.908 90.516,253.819 C90.345,249.784 90.419,245.721 89.973,241.716 C89.005,233.037 88.969,224.345 88.855,215.632 C88.733,206.244 88.084,196.862 87.667,187.478 C87.466,182.95 87.231,178.422 87.081,173.892 C86.873,167.628 86.755,161.362 86.544,155.098 C86.448,152.213 86.525,149.272 85.947,146.477 C85.59,144.748 84.252,143.17 83.17,141.657 C81.168,138.858 81.172,136.157 83.386,133.845 C84.74,132.431 86.491,132.074 88.353,132.072 C92.811,132.065 99.406,132.031 103.864,132.07 C108.085,132.106 120.753,132.364 120.753,132.364 L120.753,132.364 Z M120.753,132.364" fill="#001D2B"></path>
                    <path d="M87.093,196.124 C86.944,193.257 86.795,190.39 86.667,187.523 L86.487,183.595 C86.337,180.372 86.187,177.15 86.08,173.925 C86.067,173.543 86.059,173.661 86.047,173.279 L15.22,10 L191.1,10 L122.117,169.013 C121.996,171.443 121.881,173.571 121.768,175.865 C121.657,178.149 121.579,180.309 121.501,182.595 C121.424,184.839 121.348,187.021 121.24,189.264 C121.122,191.715 120.978,194.133 120.835,196.582 C120.832,196.627 120.83,197.158 120.827,197.202 L206.319,0 L0,0 L87.34,201.463 C87.26,199.839 87.176,197.725 87.093,196.124 L87.093,196.124 Z M87.093,196.124" fill="#39474C"></path>
                </g>
                <path d="M102.38,89.333 C97.014,89.353 91.648,89.396 86.283,89.315 C81.329,89.24 79.677,87.483 78.143,83.549 C75.917,77.835 76.781,72.174 79.476,66.91 C81.405,63.141 83.87,59.62 86.353,56.175 C87.54,54.53 88.208,53.006 87.99,50.977 C87.78,49.026 87.898,48.991 89.895,49.08 C91.187,49.138 91.708,48.262 91.89,47.28 C93.098,40.738 97.359,36.213 101.927,31.877 C102.884,30.969 103.838,30.055 104.842,29.2 C105.466,28.669 105.968,28.83 105.854,29.712 C105.634,31.403 105.552,33.167 104.986,34.747 C103.829,37.975 104.217,40.732 106.849,42.996 C109.465,45.246 112.068,47.528 114.835,49.581 C119.445,53.002 123.656,56.737 126.073,62.092 C129.19,69 128.437,75.801 125.344,82.481 C122.206,89.259 122.176,89.245 114.764,89.245 C114.766,89.243 105.476,89.321 102.38,89.333 L102.38,89.333 Z M102.38,89.333" id="Shape" fill="#001D2B"></path>
                <path d="M105.264,91.229 C111.537,91.229 117.811,91.19 124.082,91.261 C125.364,91.276 126.666,91.609 127.914,91.956 C129.398,92.369 129.923,93.577 129.906,95.01 C129.889,96.457 128.998,97.281 127.676,97.583 C126.482,97.856 125.248,97.952 124.041,98.173 C123.33,98.303 122.55,98.378 121.95,98.73 C119.944,99.907 119.838,100.935 121.501,102.558 C122.323,103.36 123.287,104.017 124.111,104.818 C129.423,109.97 130.163,116.551 127.03,123.109 C124.829,127.717 121.466,130.509 116.057,130.375 C107.239,130.155 98.412,129.804 89.601,130.009 C85.788,130.098 83.726,128.238 81.605,125.716 C76.546,119.701 76.139,112.268 80.793,106.012 C81.824,104.625 83.032,103.365 83.998,101.938 C84.498,101.198 85.048,100.119 84.861,99.373 C84.579,98.248 83.504,97.653 82.171,97.633 C80.872,97.614 79.504,97.566 78.306,97.138 C77.535,96.862 76.645,95.958 76.478,95.19 C76.24,94.099 76.609,92.831 77.929,92.361 C78.768,92.063 79.659,91.796 80.54,91.751 C84.652,91.538 88.767,91.343 92.883,91.263 C97.008,91.183 101.136,91.245 105.262,91.245 C105.264,91.238 105.264,91.233 105.264,91.229 L105.264,91.229 Z M105.264,91.229" id="Shape" fill="#001D2B"></path>
            </g>
        </g>
    </g>
</svg>